<svg width="81" height="23" viewBox="0 0 81 23" fill="none" xmlns="http://www.w3.org/2000/svg">
<path d="M80.7826 7.62252C81.1264 7.1903 81.0547 6.56121 80.6225 6.2174L73.5791 0.614687C73.1469 0.270877 72.5178 0.342546 72.174 0.774764C71.8302 1.20698 71.9018 1.83608 72.3341 2.17989L78.5949 7.16008L73.6147 13.4209C73.2709 13.8531 73.3425 14.4822 73.7748 14.826C74.207 15.1698 74.8361 15.0982 75.1799 14.6659L80.7826 7.62252ZM0.217397 15.3775C-0.126414 15.8097 -0.0547444 16.4388 0.377474 16.7826L7.42088 22.3853C7.8531 22.7291 8.4822 22.6575 8.82601 22.2252C9.16982 21.793 9.09815 21.1639 8.66593 20.8201L2.40512 15.8399L7.38531 9.57911C7.72912 9.1469 7.65745 8.5178 7.22523 8.17399C6.79301 7.83018 6.16392 7.90185 5.82011 8.33407L0.217397 15.3775ZM80 7L79.8868 6.00643L0.886806 15.0064L0.999998 16L1.11319 16.9936L80.1132 7.99357L80 7Z" fill="black"/>
</svg>
