<svg width="60" height="60" viewBox="0 0 60 60" fill="none" xmlns="http://www.w3.org/2000/svg">
<path d="M30 0C46.5685 0 60 13.4315 60 30C60 46.5685 46.5685 60 30 60C23.528 60 17.5349 57.9502 12.6338 54.4648C12.2417 54.186 11.8563 53.8984 11.4785 53.6016C4.48922 48.109 0 39.5788 0 30C0 20.4212 4.48922 11.891 11.4785 6.39844C11.8563 6.10155 12.2417 5.81398 12.6338 5.53516C17.5349 2.04985 23.528 0 30 0ZM26.4336 27.5H14.667V34.2002H26.4336V47.333H33.833V34.2002H45.5996V27.5H33.833V14.4668H26.4336V27.5Z" fill="#F0334C"/>
</svg>
